<svg width="32" height="32" viewBox="0 0 32 32" fill="none" xmlns="http://www.w3.org/2000/svg">
<path d="M16 22C14.4087 22 12.8826 21.3679 11.7574 20.2426C10.6321 19.1174 10 17.5913 10 16C10 14.4087 10.6321 12.8826 11.7574 11.7574C12.8826 10.6321 14.4087 10 16 10C17.5913 10 19.1174 10.6321 20.2426 11.7574C21.3679 12.8826 22 14.4087 22 16C22 17.5913 21.3679 19.1174 20.2426 20.2426C19.1174 21.3679 17.5913 22 16 22ZM16 24C18.1217 24 20.1566 23.1571 21.6569 21.6569C23.1571 20.1566 24 18.1217 24 16C24 13.8783 23.1571 11.8434 21.6569 10.3431C20.1566 8.84285 18.1217 8 16 8C13.8783 8 11.8434 8.84285 10.3431 10.3431C8.84285 11.8434 8 13.8783 8 16C8 18.1217 8.84285 20.1566 10.3431 21.6569C11.8434 23.1571 13.8783 24 16 24ZM16 0C16.2652 0 16.5196 0.105357 16.7071 0.292893C16.8946 0.48043 17 0.734784 17 1V5C17 5.26522 16.8946 5.51957 16.7071 5.70711C16.5196 5.89464 16.2652 6 16 6C15.7348 6 15.4804 5.89464 15.2929 5.70711C15.1054 5.51957 15 5.26522 15 5V1C15 0.734784 15.1054 0.48043 15.2929 0.292893C15.4804 0.105357 15.7348 0 16 0V0ZM16 26C16.2652 26 16.5196 26.1054 16.7071 26.2929C16.8946 26.4804 17 26.7348 17 27V31C17 31.2652 16.8946 31.5196 16.7071 31.7071C16.5196 31.8946 16.2652 32 16 32C15.7348 32 15.4804 31.8946 15.2929 31.7071C15.1054 31.5196 15 31.2652 15 31V27C15 26.7348 15.1054 26.4804 15.2929 26.2929C15.4804 26.1054 15.7348 26 16 26ZM32 16C32 16.2652 31.8946 16.5196 31.7071 16.7071C31.5196 16.8946 31.2652 17 31 17H27C26.7348 17 26.4804 16.8946 26.2929 16.7071C26.1054 16.5196 26 16.2652 26 16C26 15.7348 26.1054 15.4804 26.2929 15.2929C26.4804 15.1054 26.7348 15 27 15H31C31.2652 15 31.5196 15.1054 31.7071 15.2929C31.8946 15.4804 32 15.7348 32 16ZM6 16C6 16.2652 5.89464 16.5196 5.70711 16.7071C5.51957 16.8946 5.26522 17 5 17H1C0.734784 17 0.48043 16.8946 0.292893 16.7071C0.105357 16.5196 0 16.2652 0 16C0 15.7348 0.105357 15.4804 0.292893 15.2929C0.48043 15.1054 0.734784 15 1 15H5C5.26522 15 5.51957 15.1054 5.70711 15.2929C5.89464 15.4804 6 15.7348 6 16ZM27.314 4.686C27.5015 4.87353 27.6068 5.12784 27.6068 5.393C27.6068 5.65816 27.5015 5.91247 27.314 6.1L24.486 8.93C24.393 9.02285 24.2827 9.09647 24.1612 9.14666C24.0398 9.19686 23.9097 9.22265 23.7783 9.22256C23.5129 9.22237 23.2585 9.11677 23.071 8.929C22.9782 8.83602 22.9045 8.72567 22.8543 8.60424C22.8041 8.48281 22.7784 8.35269 22.7784 8.22129C22.7786 7.95593 22.8842 7.70151 23.072 7.514L25.9 4.686C26.0875 4.49853 26.3418 4.39321 26.607 4.39321C26.8722 4.39321 27.1265 4.49853 27.314 4.686ZM8.928 23.072C9.11547 23.2595 9.22079 23.5138 9.22079 23.779C9.22079 24.0442 9.11547 24.2985 8.928 24.486L6.1 27.314C5.9114 27.4962 5.6588 27.597 5.3966 27.5947C5.1344 27.5924 4.88359 27.4872 4.69818 27.3018C4.51277 27.1164 4.4076 26.8656 4.40533 26.6034C4.40305 26.3412 4.50384 26.0886 4.686 25.9L7.514 23.072C7.70153 22.8845 7.95584 22.7792 8.221 22.7792C8.48616 22.7792 8.74047 22.8845 8.928 23.072ZM27.314 27.314C27.1265 27.5015 26.8722 27.6068 26.607 27.6068C26.3418 27.6068 26.0875 27.5015 25.9 27.314L23.072 24.486C22.8898 24.2974 22.789 24.0448 22.7913 23.7826C22.7936 23.5204 22.8988 23.2696 23.0842 23.0842C23.2696 22.8988 23.5204 22.7936 23.7826 22.7913C24.0448 22.789 24.2974 22.8898 24.486 23.072L27.314 25.9C27.5015 26.0875 27.6068 26.3418 27.6068 26.607C27.6068 26.8722 27.5015 27.1265 27.314 27.314ZM8.928 8.93C8.74047 9.11747 8.48616 9.22279 8.221 9.22279C7.95584 9.22279 7.70153 9.11747 7.514 8.93L4.686 6.1C4.59049 6.00775 4.51431 5.89741 4.4619 5.7754C4.40949 5.6534 4.3819 5.52218 4.38075 5.3894C4.3796 5.25662 4.4049 5.12494 4.45518 5.00205C4.50546 4.87915 4.57971 4.7675 4.6736 4.6736C4.7675 4.57971 4.87915 4.50546 5.00205 4.45518C5.12494 4.4049 5.25662 4.3796 5.3894 4.38075C5.52218 4.3819 5.6534 4.40949 5.7754 4.4619C5.89741 4.51431 6.00775 4.59049 6.1 4.686L8.928 7.514C9.02113 7.60689 9.09501 7.71724 9.14542 7.83873C9.19584 7.96022 9.22179 8.09047 9.22179 8.222C9.22179 8.35353 9.19584 8.48378 9.14542 8.60527C9.09501 8.72676 9.02113 8.83711 8.928 8.93Z" fill="#FFFCFC"/>
</svg>
