<svg width="125" height="40" viewBox="0 0 125 40" fill="none" xmlns="http://www.w3.org/2000/svg">
<path d="M39.3008 12.2031H43.8271C44.7998 12.2031 45.6289 12.3496 46.3145 12.6426C47 12.9355 47.5244 13.3691 47.8877 13.9434C48.2568 14.5117 48.4414 15.2148 48.4414 16.0527C48.4414 16.6914 48.3242 17.2539 48.0898 17.7402C47.8555 18.2266 47.5244 18.6367 47.0967 18.9707C46.6689 19.2988 46.1592 19.5537 45.5674 19.7354L44.8994 20.0605H40.8301L40.8125 18.3115H43.8623C44.3896 18.3115 44.8291 18.2178 45.1807 18.0303C45.5322 17.8428 45.7959 17.5879 45.9717 17.2656C46.1533 16.9375 46.2441 16.5684 46.2441 16.1582C46.2441 15.7129 46.1562 15.3262 45.9805 14.998C45.8105 14.6641 45.5469 14.4092 45.1895 14.2334C44.832 14.0518 44.3779 13.9609 43.8271 13.9609H41.5068V25H39.3008V12.2031ZM46.6045 25L43.5986 19.252L45.9102 19.2432L48.96 24.8857V25H46.6045ZM54.6201 25.1758C53.917 25.1758 53.2812 25.0615 52.7129 24.833C52.1504 24.5986 51.6699 24.2734 51.2715 23.8574C50.8789 23.4414 50.5771 22.9521 50.3662 22.3896C50.1553 21.8271 50.0498 21.2207 50.0498 20.5703V20.2188C50.0498 19.4746 50.1582 18.8008 50.375 18.1973C50.5918 17.5938 50.8936 17.0781 51.2803 16.6504C51.667 16.2168 52.124 15.8857 52.6514 15.6572C53.1787 15.4287 53.75 15.3145 54.3652 15.3145C55.0449 15.3145 55.6396 15.4287 56.1494 15.6572C56.6592 15.8857 57.0811 16.208 57.415 16.624C57.7549 17.0342 58.0068 17.5234 58.1709 18.0918C58.3408 18.6602 58.4258 19.2871 58.4258 19.9727V20.8779H51.0781V19.3574H56.334V19.1904C56.3223 18.8096 56.2461 18.4521 56.1055 18.1182C55.9707 17.7842 55.7627 17.5146 55.4814 17.3096C55.2002 17.1045 54.8252 17.002 54.3564 17.002C54.0049 17.002 53.6914 17.0781 53.416 17.2305C53.1465 17.377 52.9209 17.5908 52.7393 17.8721C52.5576 18.1533 52.417 18.4932 52.3174 18.8916C52.2236 19.2842 52.1768 19.7266 52.1768 20.2188V20.5703C52.1768 20.9863 52.2324 21.373 52.3438 21.7305C52.4609 22.082 52.6309 22.3896 52.8535 22.6533C53.0762 22.917 53.3457 23.125 53.6621 23.2773C53.9785 23.4238 54.3389 23.4971 54.7432 23.4971C55.2529 23.4971 55.707 23.3945 56.1055 23.1895C56.5039 22.9844 56.8496 22.6943 57.1426 22.3193L58.2588 23.4004C58.0537 23.6992 57.7871 23.9863 57.459 24.2617C57.1309 24.5312 56.7295 24.751 56.2549 24.9209C55.7861 25.0908 55.2412 25.1758 54.6201 25.1758ZM65.4395 23.0928V18.5576C65.4395 18.2178 65.3779 17.9248 65.2549 17.6787C65.1318 17.4326 64.9443 17.2422 64.6924 17.1074C64.4463 16.9727 64.1357 16.9053 63.7607 16.9053C63.415 16.9053 63.1162 16.9639 62.8643 17.0811C62.6123 17.1982 62.416 17.3564 62.2754 17.5557C62.1348 17.7549 62.0645 17.9805 62.0645 18.2324H59.9551C59.9551 17.8574 60.0459 17.4941 60.2275 17.1426C60.4092 16.791 60.6729 16.4775 61.0186 16.2021C61.3643 15.9268 61.7773 15.71 62.2578 15.5518C62.7383 15.3936 63.2773 15.3145 63.875 15.3145C64.5898 15.3145 65.2227 15.4346 65.7734 15.6748C66.3301 15.915 66.7666 16.2783 67.083 16.7646C67.4053 17.2451 67.5664 17.8486 67.5664 18.5752V22.8027C67.5664 23.2363 67.5957 23.626 67.6543 23.9717C67.7188 24.3115 67.8096 24.6074 67.9268 24.8594V25H65.7559C65.6562 24.7715 65.5771 24.4814 65.5186 24.1299C65.4658 23.7725 65.4395 23.4268 65.4395 23.0928ZM65.7471 19.2168L65.7646 20.5264H64.2441C63.8516 20.5264 63.5059 20.5645 63.207 20.6406C62.9082 20.7109 62.6592 20.8164 62.46 20.957C62.2607 21.0977 62.1113 21.2676 62.0117 21.4668C61.9121 21.666 61.8623 21.8916 61.8623 22.1436C61.8623 22.3955 61.9209 22.627 62.0381 22.8379C62.1553 23.043 62.3252 23.2041 62.5479 23.3213C62.7764 23.4385 63.0518 23.4971 63.374 23.4971C63.8076 23.4971 64.1855 23.4092 64.5078 23.2334C64.8359 23.0518 65.0938 22.832 65.2812 22.5742C65.4688 22.3105 65.5684 22.0615 65.5801 21.8271L66.2656 22.7676C66.1953 23.0078 66.0752 23.2656 65.9053 23.541C65.7354 23.8164 65.5127 24.0801 65.2373 24.332C64.9678 24.5781 64.6426 24.7803 64.2617 24.9385C63.8867 25.0967 63.4531 25.1758 62.9609 25.1758C62.3398 25.1758 61.7861 25.0527 61.2998 24.8066C60.8135 24.5547 60.4326 24.2178 60.1572 23.7959C59.8818 23.3682 59.7441 22.8848 59.7441 22.3457C59.7441 21.8418 59.8379 21.3965 60.0254 21.0098C60.2188 20.6172 60.5 20.2891 60.8691 20.0254C61.2441 19.7617 61.7012 19.5625 62.2402 19.4277C62.7793 19.2871 63.3945 19.2168 64.0859 19.2168H65.7471ZM75.582 23.0312V11.5H77.709V25H75.7842L75.582 23.0312ZM69.3945 20.3506V20.166C69.3945 19.4453 69.4795 18.7891 69.6494 18.1973C69.8193 17.5996 70.0654 17.0869 70.3877 16.6592C70.71 16.2256 71.1025 15.8945 71.5654 15.666C72.0283 15.4316 72.5498 15.3145 73.1299 15.3145C73.7041 15.3145 74.208 15.4258 74.6416 15.6484C75.0752 15.8711 75.4443 16.1904 75.749 16.6064C76.0537 17.0166 76.2969 17.5088 76.4785 18.083C76.6602 18.6514 76.7891 19.2842 76.8652 19.9814V20.5703C76.7891 21.25 76.6602 21.8711 76.4785 22.4336C76.2969 22.9961 76.0537 23.4824 75.749 23.8926C75.4443 24.3027 75.0723 24.6191 74.6328 24.8418C74.1992 25.0645 73.6924 25.1758 73.1123 25.1758C72.5381 25.1758 72.0195 25.0557 71.5566 24.8154C71.0996 24.5752 70.71 24.2383 70.3877 23.8047C70.0654 23.3711 69.8193 22.8613 69.6494 22.2754C69.4795 21.6836 69.3945 21.042 69.3945 20.3506ZM71.5127 20.166V20.3506C71.5127 20.7842 71.5508 21.1885 71.627 21.5635C71.709 21.9385 71.835 22.2695 72.0049 22.5566C72.1748 22.8379 72.3945 23.0605 72.6641 23.2246C72.9395 23.3828 73.2676 23.4619 73.6484 23.4619C74.1289 23.4619 74.5244 23.3564 74.835 23.1455C75.1455 22.9346 75.3887 22.6504 75.5645 22.293C75.7461 21.9297 75.8691 21.5254 75.9336 21.0801V19.4893C75.8984 19.1436 75.8252 18.8213 75.7139 18.5225C75.6084 18.2236 75.4648 17.9629 75.2832 17.7402C75.1016 17.5117 74.876 17.3359 74.6064 17.2129C74.3428 17.084 74.0293 17.0195 73.666 17.0195C73.2793 17.0195 72.9512 17.1016 72.6816 17.2656C72.4121 17.4297 72.1895 17.6553 72.0137 17.9424C71.8438 18.2295 71.7178 18.5635 71.6357 18.9443C71.5537 19.3252 71.5127 19.7324 71.5127 20.166ZM88.1504 23.251V25H81.7256V23.251H88.1504ZM82.3408 12.2031V25H80.1348V12.2031H82.3408ZM95.0059 23.0928V18.5576C95.0059 18.2178 94.9443 17.9248 94.8213 17.6787C94.6982 17.4326 94.5107 17.2422 94.2588 17.1074C94.0127 16.9727 93.7021 16.9053 93.3271 16.9053C92.9814 16.9053 92.6826 16.9639 92.4307 17.0811C92.1787 17.1982 91.9824 17.3564 91.8418 17.5557C91.7012 17.7549 91.6309 17.9805 91.6309 18.2324H89.5215C89.5215 17.8574 89.6123 17.4941 89.7939 17.1426C89.9756 16.791 90.2393 16.4775 90.585 16.2021C90.9307 15.9268 91.3438 15.71 91.8242 15.5518C92.3047 15.3936 92.8438 15.3145 93.4414 15.3145C94.1562 15.3145 94.7891 15.4346 95.3398 15.6748C95.8965 15.915 96.333 16.2783 96.6494 16.7646C96.9717 17.2451 97.1328 17.8486 97.1328 18.5752V22.8027C97.1328 23.2363 97.1621 23.626 97.2207 23.9717C97.2852 24.3115 97.376 24.6074 97.4932 24.8594V25H95.3223C95.2227 24.7715 95.1436 24.4814 95.085 24.1299C95.0322 23.7725 95.0059 23.4268 95.0059 23.0928ZM95.3135 19.2168L95.3311 20.5264H93.8105C93.418 20.5264 93.0723 20.5645 92.7734 20.6406C92.4746 20.7109 92.2256 20.8164 92.0264 20.957C91.8271 21.0977 91.6777 21.2676 91.5781 21.4668C91.4785 21.666 91.4287 21.8916 91.4287 22.1436C91.4287 22.3955 91.4873 22.627 91.6045 22.8379C91.7217 23.043 91.8916 23.2041 92.1143 23.3213C92.3428 23.4385 92.6182 23.4971 92.9404 23.4971C93.374 23.4971 93.752 23.4092 94.0742 23.2334C94.4023 23.0518 94.6602 22.832 94.8477 22.5742C95.0352 22.3105 95.1348 22.0615 95.1465 21.8271L95.832 22.7676C95.7617 23.0078 95.6416 23.2656 95.4717 23.541C95.3018 23.8164 95.0791 24.0801 94.8037 24.332C94.5342 24.5781 94.209 24.7803 93.8281 24.9385C93.4531 25.0967 93.0195 25.1758 92.5273 25.1758C91.9062 25.1758 91.3525 25.0527 90.8662 24.8066C90.3799 24.5547 89.999 24.2178 89.7236 23.7959C89.4482 23.3682 89.3105 22.8848 89.3105 22.3457C89.3105 21.8418 89.4043 21.3965 89.5918 21.0098C89.7852 20.6172 90.0664 20.2891 90.4355 20.0254C90.8105 19.7617 91.2676 19.5625 91.8066 19.4277C92.3457 19.2871 92.9609 19.2168 93.6523 19.2168H95.3135ZM101.466 17.4238V25H99.3477V15.4902H101.343L101.466 17.4238ZM101.123 19.8936L100.402 19.8848C100.402 19.2285 100.484 18.6221 100.648 18.0654C100.812 17.5088 101.053 17.0254 101.369 16.6152C101.686 16.1992 102.078 15.8799 102.547 15.6572C103.021 15.4287 103.569 15.3145 104.19 15.3145C104.624 15.3145 105.02 15.3789 105.377 15.5078C105.74 15.6309 106.054 15.8271 106.317 16.0967C106.587 16.3662 106.792 16.7119 106.933 17.1338C107.079 17.5557 107.152 18.0654 107.152 18.6631V25H105.034V18.8477C105.034 18.3848 104.964 18.0215 104.823 17.7578C104.688 17.4941 104.492 17.3066 104.234 17.1953C103.982 17.0781 103.681 17.0195 103.329 17.0195C102.931 17.0195 102.591 17.0957 102.31 17.248C102.034 17.4004 101.809 17.6084 101.633 17.8721C101.457 18.1357 101.328 18.4404 101.246 18.7861C101.164 19.1318 101.123 19.501 101.123 19.8936ZM107.021 19.3311L106.027 19.5508C106.027 18.9766 106.106 18.4346 106.265 17.9248C106.429 17.4092 106.666 16.958 106.977 16.5713C107.293 16.1787 107.683 15.8711 108.146 15.6484C108.608 15.4258 109.139 15.3145 109.736 15.3145C110.223 15.3145 110.656 15.3818 111.037 15.5166C111.424 15.6455 111.752 15.8506 112.021 16.1318C112.291 16.4131 112.496 16.7793 112.637 17.2305C112.777 17.6758 112.848 18.2148 112.848 18.8477V25H110.721V18.8389C110.721 18.3584 110.65 17.9863 110.51 17.7227C110.375 17.459 110.182 17.2773 109.93 17.1777C109.678 17.0723 109.376 17.0195 109.024 17.0195C108.696 17.0195 108.406 17.0811 108.154 17.2041C107.908 17.3213 107.7 17.4883 107.53 17.7051C107.36 17.916 107.231 18.1592 107.144 18.4346C107.062 18.71 107.021 19.0088 107.021 19.3311ZM117.154 17.3184V28.6562H115.036V15.4902H116.987L117.154 17.3184ZM123.351 20.1572V20.3418C123.351 21.0332 123.269 21.6748 123.104 22.2666C122.946 22.8525 122.709 23.3652 122.393 23.8047C122.082 24.2383 121.698 24.5752 121.241 24.8154C120.784 25.0557 120.257 25.1758 119.659 25.1758C119.067 25.1758 118.549 25.0674 118.104 24.8506C117.664 24.6279 117.292 24.3145 116.987 23.9102C116.683 23.5059 116.437 23.0312 116.249 22.4863C116.067 21.9355 115.938 21.332 115.862 20.6758V19.9639C115.938 19.2666 116.067 18.6338 116.249 18.0654C116.437 17.4971 116.683 17.0078 116.987 16.5977C117.292 16.1875 117.664 15.8711 118.104 15.6484C118.543 15.4258 119.056 15.3145 119.642 15.3145C120.239 15.3145 120.77 15.4316 121.232 15.666C121.695 15.8945 122.085 16.2227 122.401 16.6504C122.718 17.0723 122.955 17.582 123.113 18.1797C123.271 18.7715 123.351 19.4307 123.351 20.1572ZM121.232 20.3418V20.1572C121.232 19.7178 121.191 19.3105 121.109 18.9355C121.027 18.5547 120.898 18.2207 120.723 17.9336C120.547 17.6465 120.321 17.4238 120.046 17.2656C119.776 17.1016 119.451 17.0195 119.07 17.0195C118.695 17.0195 118.373 17.084 118.104 17.2129C117.834 17.3359 117.608 17.5088 117.427 17.7314C117.245 17.9541 117.104 18.2148 117.005 18.5137C116.905 18.8066 116.835 19.126 116.794 19.4717V21.1768C116.864 21.5986 116.984 21.9854 117.154 22.3369C117.324 22.6885 117.564 22.9697 117.875 23.1807C118.191 23.3857 118.596 23.4883 119.088 23.4883C119.469 23.4883 119.794 23.4062 120.063 23.2422C120.333 23.0781 120.553 22.8525 120.723 22.5654C120.898 22.2725 121.027 21.9355 121.109 21.5547C121.191 21.1738 121.232 20.7695 121.232 20.3418Z" fill="white"/>
<path d="M16.3356 0L19.6655 5L17.3924 6.5L23.733 16H24.0122C25.0698 16 26.0841 16.4214 26.832 17.1716C27.5799 17.9217 28 18.9391 28 20C27.9975 20.9131 27.6837 21.7979 27.1106 22.5074C26.5375 23.2168 25.7397 23.7082 24.8496 23.9L16.7942 36H24.0122V40H4.07312V36H12.0487L20.9615 22.56C20.3598 21.8431 20.0281 20.9371 20.0244 20C20.0244 19.4 20.1639 18.8 20.4232 18.26L14.0427 8.74C14.4813 12.1 12.5472 15.78 9.15758 18L0.30464 4.74C3.67434 2.48 7.82167 2.08 10.7527 3.74L16.3356 0ZM1.42123 10L4.73111 15C3.37525 15.9 1.50098 15.54 0.583786 14.16C-0.333412 12.78 0.08531 10.92 1.42123 10Z" fill="white"/>
</svg>
